# xmcd CD database file
#
# Track frame offsets:
#	150
#	15635
#	39845
#	54645
#	65760
#	87520
#	108235
#	121327
#	134722
#	151620
#	168877
#	184402
#	200335
#
# Disc length: 2794 seconds
#
# Revision: 0
# Processed by: cddbd v1.5.1PL2 Copyright (c) Steve Scherf et al.
# Submitted via: CDex 1.50beta10
#
DISCID=ad0ae80d
DTITLE=Various Artist - Jazz For Sensual Lovers
DYEAR=1995
DGENRE=Jazz
TTITLE0=Nuages
TTITLE1=Li'l Suzie
TTITLE2=Something Tender
TTITLE3=Last Night When We Were Young
TTITLE4=I've Grown Accustomed to Her Face
TTITLE5=God Bless The Child
TTITLE6=Spring Can Really Hang You Up the Most
TTITLE7=Snowfall
TTITLE8=Emily
TTITLE9=My Funny Valentine
TTITLE10=Emmett Spencer
TTITLE11=Someone to Watch Over Me
TTITLE12=If There is Someone Lovelier Than You
EXTD=YEAR: 1995
EXTT0=
EXTT1=
EXTT2=
EXTT3=
EXTT4=
EXTT5=
EXTT6=
EXTT7=
EXTT8=
EXTT9=
EXTT10=
EXTT11=
EXTT12=
PLAYORDER=
